<?xml version="1.0" encoding="utf-8"?>
<!-- Generator: Adobe Illustrator 27.5.0, SVG Export Plug-In . SVG Version: 6.00 Build 0)  -->
<svg version="1.1" xmlns="http://www.w3.org/2000/svg" xmlns:xlink="http://www.w3.org/1999/xlink" x="0px" y="0px"
	 viewBox="0 0 500 500" style="enable-background:new 0 0 500 500;" xml:space="preserve">
<g id="BACKGROUND">
	<rect style="fill:#FEF9F3;" width="500" height="500"/>
</g>
<g id="OBJECTS">
	<ellipse style="fill:#E8E5E0;" cx="256.179" cy="449.614" rx="218.181" ry="7.441"/>
	<g>
		<g>
			<path style="fill:#44393D;" d="M337.437,449.055H158.684c-5.523,0-10-4.477-10-10v-363c0-5.523,4.477-10,10-10h178.753
				c5.523,0,10,4.477,10,10v363C347.437,444.578,342.96,449.055,337.437,449.055z"/>
			<g>
				<path style="fill:#79ACB7;" d="M331.437,77.055h-48.043v10c0,2.761-2.239,5-5,5h-60.667c-2.761,0-5-2.239-5-5v-10h-48.043
					c-2.761,0-5,2.239-5,5v351c0,2.761,2.239,5,5,5h166.753c2.761,0,5-2.239,5-5v-351C336.437,79.294,334.198,77.055,331.437,77.055
					z"/>
				<path style="fill:#6498A5;" d="M160.059,434.944c0.746,1.824,2.533,3.111,4.625,3.111h166.753c2.761,0,5-2.239,5-5v-351
					c0-1.332-0.529-2.535-1.379-3.432L160.059,434.944z"/>
			</g>
			<path style="fill:none;stroke:#FEF9F3;stroke-miterlimit:10;" d="M331.437,77.055h-48.043v10c0,2.761-2.239,5-5,5h-60.667
				c-2.761,0-5-2.239-5-5v-10h-48.043c-2.761,0-5,2.239-5,5v351c0,2.761,2.239,5,5,5h166.753c2.761,0,5-2.239,5-5v-351
				C336.437,79.294,334.198,77.055,331.437,77.055z"/>
		</g>
		<g>
			<path style="fill:#6498A5;" d="M252.436,84.43h-27.25c-1.581,0-2.875-1.294-2.875-2.875l0,0c0-1.581,1.294-2.875,2.875-2.875
				h27.25c1.581,0,2.875,1.294,2.875,2.875l0,0C255.311,83.136,254.017,84.43,252.436,84.43z"/>
			<path style="fill:#6498A5;" d="M270.936,84.43h-4.25c-1.581,0-2.875-1.294-2.875-2.875l0,0c0-1.581,1.294-2.875,2.875-2.875h4.25
				c1.581,0,2.875,1.294,2.875,2.875l0,0C273.811,83.136,272.517,84.43,270.936,84.43z"/>
		</g>
		<g>
			<circle style="fill:#EAE7E2;" cx="282.721" cy="242.867" r="45"/>
			<path style="fill:#EAE7E2;" d="M234.533,242.867c0-16.892,8.699-31.744,21.854-40.348c-5.687-18.335-22.781-31.652-42.986-31.652
				c-24.853,0-45,20.147-45,45s20.147,45,45,45c8.247,0,15.969-2.229,22.616-6.102C235.05,250.96,234.533,246.974,234.533,242.867z"
				/>
		</g>
		<g>
			<path style="fill:#5A2633;" d="M221.989,224.548h-22.69v-23.277c0-5.911,4.792-10.704,10.704-10.704h1.283
				c5.911,0,10.704,4.792,10.704,10.704V224.548z"/>
			<path style="fill:#FEC4B8;" d="M228.144,231.815h-35c0-10.65,7.835-19.284,17.5-19.284
				C220.309,212.531,228.144,221.165,228.144,231.815z"/>
			<path style="fill:#FC3D2A;" d="M210.644,217.065L210.644,217.065c-1.733,0-3.138-1.405-3.138-3.138v-5.929h6.276v5.929
				C213.782,215.66,212.377,217.065,210.644,217.065z"/>
			<path style="fill:#FF6A49;" d="M212.122,196.548c-1.567,3.022-7.93,4.278-8.847,4.445c-0.07,0.494-0.114,0.999-0.114,1.517
				c0,4.974,3.35,9.006,7.483,9.006c4.014,0,7.281-3.807,7.465-8.584C214.335,202.05,212.122,196.548,212.122,196.548z"/>
		</g>
		<g>
			<path style="fill:#FEC4B8;" d="M300.221,261.67h-35c0-10.65,7.835-19.284,17.5-19.284
				C292.386,242.386,300.221,251.02,300.221,261.67z"/>
			<path style="fill:#FC3D2A;" d="M282.721,246.92L282.721,246.92c-1.733,0-3.138-1.405-3.138-3.138v-5.929h6.276v5.929
				C285.859,245.515,284.454,246.92,282.721,246.92z"/>
			<ellipse style="fill:#FF6A49;" cx="282.721" cy="232.365" rx="7.483" ry="9.006"/>
			<path style="fill:#FF6A49;" d="M290.098,234.224h-14.754c-0.896,0-1.629-0.733-1.629-1.629l0,0c0-0.896,0.733-1.629,1.629-1.629
				h14.754c0.896,0,1.629,0.733,1.629,1.629l0,0C291.727,233.491,290.994,234.224,290.098,234.224z"/>
			<path style="fill:#5A2633;" d="M274.915,231.66c-0.435-1.985-0.482-4.165,0.032-6.215c0.197-0.783,0.745-1.679,1.453-2.154
				c0.393-0.263,0.899-0.215,1.287-0.444c0.581-0.343,0.835-0.903,1.514-1.178c0.701-0.284,1.519-0.424,2.286-0.389
				c1.869,0.084,3.425,0.982,5.306,0.232c1.673-0.667,2.6,0.039,1.926,1.753c2.416-1.021,1.574,1.781,1.484,2.664
				c-0.102,0.999-0.016,2.189,0.137,3.208c0.327,2.193,0.092,2.917-0.367,4.003c-0.332-2.353-0.83-5.696-2.957-6.608
				c-1.674-0.718-4.357,0.217-6.087-0.042c-1.523-0.228-2.842-0.42-3.856,1.027c-0.826,1.179-1.218,4.053-1.312,5.472
				C275.619,232.86,274.957,232.305,274.915,231.66z"/>
		</g>
		<g>
			<path style="fill:#FF6A49;" d="M263.811,139.13c0-4.787-3.881-8.668-8.668-8.668c-2.933,0-5.514,1.465-7.082,3.694
				c-1.569-2.229-4.15-3.694-7.082-3.694c-4.787,0-8.668,3.881-8.668,8.668c0,9.934,15.75,18.518,15.75,18.518
				S263.811,149.84,263.811,139.13z"/>
			<path style="fill:none;stroke:#FEF9F3;stroke-miterlimit:10;" d="M263.811,139.13c0-4.787-3.881-8.668-8.668-8.668
				c-2.933,0-5.514,1.465-7.082,3.694c-1.569-2.229-4.15-3.694-7.082-3.694c-4.787,0-8.668,3.881-8.668,8.668
				c0,9.934,15.75,18.518,15.75,18.518S263.811,149.84,263.811,139.13z"/>
		</g>
		<text transform="matrix(1 0 0 1 177.0122 325.055)" style="fill:#44393D; font-family:'Lobster1.3'; font-size:20px;">Meet Your Match !</text>
		<g>
			<path style="fill:#4E7C87;" d="M290.727,380.801h-85.333c-7.333,0-13.333-6-13.333-13.333l0,0c0-7.333,6-13.333,13.333-13.333
				h85.333c7.333,0,13.333,6,13.333,13.333l0,0C304.061,374.801,298.061,380.801,290.727,380.801z"/>
			<path style="fill:#FF6A49;" d="M290.727,377.801h-85.333c-7.333,0-13.333-6-13.333-13.333l0,0c0-7.333,6-13.333,13.333-13.333
				h85.333c7.333,0,13.333,6,13.333,13.333l0,0C304.061,371.801,298.061,377.801,290.727,377.801z"/>
			<text transform="matrix(1 0 0 1 216.6188 368.5588)" style="fill:#FEF9F3; font-family:'Roboto-Medium'; font-size:14px;">Start Chat</text>
		</g>
	</g>
	<g>
		<path style="fill:#44393D;" d="M456.641,180.267l-27.501,22.972c-0.424,0.354-1.055,0.298-1.409-0.126l-2.671-3.198
			c-0.354-0.424-0.297-1.055,0.126-1.409l27.501-22.972c0.424-0.354,1.055-0.298,1.409,0.126l2.671,3.198
			C457.122,179.282,457.065,179.913,456.641,180.267z"/>
		<g>
			<path style="fill:#FC3D2A;" d="M413.791,438.559v-28.504h25.569v24.586C439.36,434.641,425.291,448.559,413.791,438.559z"/>
			<path style="fill:#EAE7E2;" d="M439.36,434.641v-5.336h-25.569v9.253C425.291,448.558,439.36,434.641,439.36,434.641z"/>
			<path style="fill:#402131;" d="M412.86,436.555v12.5h50.864c0,0-1.114-10.5-8.364-12.5s-15.25-5.5-15.25-5.5l-9.75,5
				C430.36,436.055,421.36,440.805,412.86,436.555z"/>
		</g>
		<g>
			<path style="fill:#FC3D2A;" d="M356.532,342.007l28.496-0.673l0.604,25.562l-24.58,0.58
				C361.051,367.477,346.806,353.74,356.532,342.007z"/>
			<path style="fill:#EAE7E2;" d="M361.051,367.477l5.335-0.126l-0.603-25.562l-9.251,0.219
				C346.806,353.74,361.051,367.477,361.051,367.477z"/>
			<path style="fill:#402131;" d="M358.513,341.029l-12.497,0.295l1.201,50.85c0,0,10.471-1.361,12.299-8.656
				c1.828-7.295,5.139-15.376,5.139-15.376l-5.229-9.629C359.426,358.513,354.464,349.627,358.513,341.029z"/>
		</g>
		<path style="fill:#FC3D2A;" d="M435.392,272.578c-0.992-1.502-1.665-3.207-2.594-4.76c-1.274-2.128-2.598-5.635-4.553-7.707
			c-7.297-10.631-38.029-37.789-38.029-37.789l-15.082,22.419l52.363,44.956c0,0,2.552-7.665,3.249-15.54
			c0.226,0.182,0.452,0.359,0.674,0.512c0.965,0.668,5.791,2.954,5.506,0.15C436.856,274.132,435.784,273.172,435.392,272.578z"/>
		<path style="fill:#2C6483;" d="M418.36,265.055c0,0,34.667,72.667,21.5,161.5h-26.5c0,0-8-68.167-17.983-76
			c-35.132-27.567-46.94-65.5-46.94-65.5L418.36,265.055z"/>
		<path style="fill:#5DBDDD;" d="M348.437,285.055c0,0,0,29.873,60.923,41l-48.874,13.813l8.896,28.937c0,0,81.061-6.667,92.728-25
			c11.667-18.333-43.75-78.75-43.75-78.75L348.437,285.055z"/>
		<path style="fill:#4CA5C5;" d="M462.11,343.805c0.857-1.347,1.344-2.927,1.525-4.689c-29.151,21.761-80.274-64.049-80.275-64.05
			l-34.923,9.989c0,0,0,29.873,60.923,41l-48.874,13.813l8.896,28.937C369.382,368.805,450.443,362.138,462.11,343.805z"/>
		<path style="fill:#FFDFCA;" d="M347.437,289.305l73.141-23.205c0,0-10.77-26.597-18.968-54.545
			c-6.233-21.25-13.989-44.255-25.607-49.58c-16.826-7.712-35.455,1.606-42.408,17.08
			C324.411,199.494,330.407,238.083,347.437,289.305z"/>
		<path style="fill:#FEC4B8;" d="M392.76,252.158c-10.859-14.82-9.4-36.104-9.4-36.104l-7.676-10l-31.324,25
			c-7.499-10.014-14.405-28.719-15.007-30.37c-0.654,21.701,5.881,51.915,18.084,88.62l38.966-12.363L392.76,252.158z"/>
		<g>
			<path style="fill:#FF6A49;" d="M391.073,138.283l-4.44-3.713c-0.446-1.548,0.042-2.582-0.439-4.227
				c-3.858-13.205-14.991-9.701-14.991-9.701c-17.197,6.496-6.24,25.843-6.24,25.843s0.073,0.084,0.197,0.223l-5.213,12.731
				c-0.937,0.111-1.868,0.25-2.787,0.445c0.04,0.028,19.494,13.504,22.262,13.504c2.771,0-3.42-11.413-3.42-11.413l0,0l2.058-5.699
				c2.271,0.829,4.601,1.122,6.776,0.43c6.075-1.933,6.206-7.586,4.419-15.316l1.53-0.748
				C391.709,140.191,391.86,138.941,391.073,138.283z"/>
			<path style="fill:#5A2633;" d="M363.861,149.959c0.522-1.536-0.891-3.468-1.802-4.7c-1.623-2.196-3.433-4.644-4.783-7.014
				c-2.24-3.93-1.38-9.399,1.506-12.727c1.666-1.921,3.352-3.277,5.489-4.533c2.268-1.332,5.177-2.203,6.701-4.484
				c1.003-1.501,1.511-2.364,3.467-2.111c2.306,0.298,3.149,2.164,4.149,3.776c1.194-1.075,1.778-1.842,2.633,0.172
				c0.548,1.29,0.833,3.019,0.338,4.328c-1.007,2.662-2.652,3.417-5.007,4.805c-2.109,1.243-4.019,2.318-6.153,3.514
				c1.011,1.171,1.066,2.296,1.303,4.014c0.282,2.042-0.025,4.075-1.186,5.755c-4.945-3.469-7.046,4.033-2.122,5.314
				C367.843,148.288,366.016,149.532,363.861,149.959z"/>
			<path style="fill:#FC3D2A;" d="M378.061,156.275c0,0-5.268-2.555-6.521-6.316c0,0-0.085,8.673,4.463,12.016L378.061,156.275z"/>
			<polygon style="fill:#FC3D2A;" points="389.257,141.389 387.524,141.889 389.456,142.286 			"/>
		</g>
		<path style="fill:#FF6A49;" d="M446.966,188.349c0,0-5.856,4.956-7.856,5.706s-9.375-4.75-9.375-4.75s3.375-2.125,4.375-3.625
			s1.75-5.25-1.25-3.25s-9.5,0.25-13.375,1.625s-4.608,10.5-4.608,10.5l0,0l-31.517,21.5l-7.676-10l-31.324,25
			c0,0,19.443,33.75,45.096,22.75c23.669-10.149,29.119-38.796,35.318-47.097c3.603-4.198,9.097-3.404,11.086-3.653
			c2-0.25,7.375-5.125,9.125-7.625S446.966,188.349,446.966,188.349z"/>
		<polygon style="fill:#FC3D2A;" points="383.36,216.055 375.485,221.93 380.297,212.065 		"/>
		<path style="fill:#2C6483;" d="M384.221,277.635l16.069,22.392c0,0,13.104-1.224-4.913-25.931L384.221,277.635z"/>
		<g>
			<circle style="fill:#6498A5;" cx="436.86" cy="133.305" r="14.75"/>
			
				<line style="fill:none;stroke:#6498A5;stroke-linecap:round;stroke-linejoin:round;stroke-miterlimit:10;" x1="440.914" y1="145.305" x2="449.86" y2="172.555"/>
			<path style="fill:#FEF9F3;" d="M442.844,131.434c0-1.819-1.474-3.293-3.293-3.293c-1.114,0-2.095,0.557-2.691,1.403
				c-0.596-0.847-1.577-1.403-2.691-1.403c-1.819,0-3.293,1.475-3.293,3.293c0,3.774,5.984,7.036,5.984,7.036
				S442.844,135.503,442.844,131.434z"/>
		</g>
	</g>
	<g>
		<g>
			<path style="fill:#FF6A49;" d="M55.176,185.291c-0.75-2.834-0.609-6.322-0.507-7.619c0.142-1.821-2.57-5.594-4.14-7.378
				c-1.57-1.784-4.57-11.071-6.385-8.438c-1.815,2.632,2.516,11.15,2.516,11.15L34.788,170.1c0,0-1.141,3.234,0.662,5.891
				c1.803,2.656,3.767,10.123,3.767,10.123l6.987,4.328l8.932,28.968l15.64-6.583L55.176,185.291z"/>
			<polygon style="fill:#FC3D2A;" points="51.45,207.451 55.138,219.409 70.778,212.826 61.611,196.648 			"/>
			<path style="fill:#44393D;" d="M26.405,157.292l22.035,28.258c0.34,0.436,0.968,0.513,1.404,0.174l3.286-2.562
				c0.436-0.34,0.513-0.968,0.174-1.404L31.267,153.5c-0.34-0.436-0.968-0.513-1.403-0.174l-3.286,2.562
				C26.143,156.228,26.065,156.857,26.405,157.292z"/>
			<path style="fill:#FF6A49;" d="M39.854,171.339c-0.85-4.29-5.421-7.905-5.421-7.905l0.356,6.666c0,0-1.141,3.234,0.662,5.891
				c1.803,2.656,3.767,10.123,3.767,10.123l3.515,2.177c1.043-0.945,1.969-2.03,2.46-3.19
				C46.775,181.367,40.704,175.63,39.854,171.339z"/>
		</g>
		<path style="fill:#5A2633;" d="M101.9,181.939c0,0,7.012-20.452,6.866-27.318c-0.146-6.866-4.967-17.238-2.776-22.936
			c2.191-5.697,15.924-9.057,15.924-9.057s0-2.63,3.36-2.337c3.36,0.292,14.171,2.63,15.485,8.327
			c1.315,5.697,1.03,20.144,4.675,27.164c3.644,7.02,10.957,17.685-1.315,28.934C131.848,195.964,100.878,192.896,101.9,181.939z"/>
		<g>
			<path style="fill:#FFDFCA;" d="M123.387,168.891c0,0-23.082,5.059-28.863,15.176c-4.832,8.456-18.066,33.784-18.066,33.784
				l-12.005-17.276l-12.599,9.857c0,0,6.176,42.829,16.474,42.829s24.291-9.411,24.291-9.411l-2.077,14.13l58.952,8.037
				l1.555-15.809l15.912-2.06c7.196-0.932,12.291-7.546,11.268-14.73c-0.018-0.13-0.038-0.26-0.057-0.392
				c-1.987-13.198-13.55-53.477-13.55-53.477S158.393,164.916,123.387,168.891z"/>
			<path style="fill:#FEC4B8;" d="M95.61,222.101c0,0-3.75-4.5-2.75-11s7.532-10,9.016-15.25c0,0-9.991,7.179-17.29,6.568
				c-4.294,8.094-8.128,15.431-8.128,15.431s7.848,22.886,0,33.943l0,0c8.284-2.646,16.162-7.943,16.162-7.943L95.61,222.101z"/>
			<polygon style="fill:#FEC4B8;" points="119.749,261.963 129.985,250.209 151.049,250.209 149.494,266.018 			"/>
			<path style="fill:#FEC4B8;" d="M137.11,231.601l14.5-3l-2.114-18.75C149.496,209.851,147.318,226.851,137.11,231.601z"/>
		</g>
		<g>
			<path style="fill:#FF6A49;" d="M75.36,390.101l-15.632,26.578c0,0-2.542,3.995-2.361,7.808c0.182,3.813,2.351,9.256-0.009,13.614
				c-2.361,4.358,2.954,9.874,13.265,9.992c8.987,0.103,8.451-5.425,6.237-9.992c-8.506-17.55,9.822-30.484,13.142-35.75
				L75.36,390.101z"/>
			<path style="fill:#5A2633;" d="M57.367,424.487c0.182,3.813,2.351,9.256-0.009,13.614c-2.361,4.358,2.954,9.874,13.265,9.992
				c8.987,0.103,8.451-5.425,6.237-9.992c-0.271-0.56-0.514-1.115-0.732-1.665c-0.001-0.001-0.001-0.001-0.002-0.002
				c-7.567-6.833-14.266,0-14.266,0l-2.132-19.755C59.728,416.679,57.185,420.674,57.367,424.487z"/>
		</g>
		<g>
			<path style="fill:#FC3D2A;" d="M84.532,418.176c0,0,1.444,20.475,4.349,26.104c2.905,5.629,12.601,4.721,12.601,4.721
				s9.734-2.542,7.373-6.9c-2.361-4.358-11.077-16.342-11.977-25.422L84.532,418.176z"/>
			<path style="fill:#5A2633;" d="M101.482,449.001c0,0,9.734-2.542,7.373-6.9c-0.621-1.146-1.685-2.828-2.927-4.836
				c-1.955-0.438-4.484-0.821-7.401-0.83c-6.903-0.022-10.899,4.26-10.899,4.26c0.382,1.467,0.8,2.707,1.253,3.585
				C91.786,449.909,101.482,449.001,101.482,449.001z"/>
		</g>
		<g>
			<path style="fill:#4CA5C5;" d="M149.489,265.101l-58.946-7.12c0,0-14.64,14.626-17.14,29.126
				c-1.445,8.382-2.25,58.012,2.428,92.92l-10.409,21.886l16.063,17.564h0c0.861,5.997,0.875,7.125,0.875,7.125l22.5-3.5v-33
				c0,0,36-57.5,40.5-75.5S149.489,265.101,149.489,265.101z"/>
			<path style="fill:#2C6483;" d="M90.542,257.981c0,0-0.194,0.198-0.54,0.562l59.479,11.256c0.028-2.924,0.008-4.698,0.008-4.698
				L90.542,257.981z"/>
			<path style="fill:#2C6483;" d="M75.83,380.026l33.394-83.428l-35.836,57.26C73.403,362.435,74.753,371.986,75.83,380.026z"/>
			<path style="fill:#2C6483;" d="M82.36,426.601l22.5-3.5v-33l-23.375,29.375C82.346,425.473,82.36,426.601,82.36,426.601z"/>
		</g>
		<g>
			<path style="fill:#FF6A49;" d="M138.157,168.293l-4.578-21.463l-11.665,11.411v11.005c-0.849,0.215-2.018,0.525-3.413,0.936
				c0,0-5.945,15.668,6.359,15.752c13.62,0.094,17.333-12.602,18.235-17.248C141.56,168.501,139.907,168.372,138.157,168.293z"/>
			<path style="fill:#FC3D2A;" d="M134.091,149.229L134.091,149.229l-0.512-2.399l-11.665,11.411v8.765
				C131.848,161.309,134.091,149.229,134.091,149.229z"/>
			<path style="fill:#FF6A49;" d="M134.939,146.83c-9.327-2.5-12.002-16.345-12.002-16.345c-5.442,0.859-10.686,10.137-10.89,10.501
				c-0.063,3.095,0.225,5.354,0.225,5.354s0,13.44,7.597,15.777C126.337,164.107,132.39,154.911,134.939,146.83L134.939,146.83z"/>
		</g>
		<g>
			<path style="fill:#FF6A49;" d="M132.495,232.848c0,0-19.92,4.141-25.036,5.42c-0.238,0.059-0.481,0.125-0.725,0.196
				c-0.743-0.626-1.771-1.018-3.207-1.029c-3.266-0.024-5.242,0.89-7.864,2.597c-2.487,1.619-3.924,1.048-6.401,0.641
				c-0.343,2.102,2.231,4.062,4.157,3.89c-1.963,2.496-3.49,5.568-4.145,8.793c-0.513,2.523-0.651,5.137-1.427,7.507
				c1.726-0.211,3.066-0.609,4.687-1.498c2.731-1.498,3.997-4.613,6.668-6.005c1.197-0.624,2.587-0.759,3.879-1.369
				c0.77-0.364,1.506-0.847,2.177-1.338l27.015-0.444L132.495,232.848z"/>
			<polygon style="fill:#FC3D2A;" points="132.495,232.848 128.357,250.273 132.272,250.209 			"/>
		</g>
		<g>
			<circle style="fill:#6498A5;" cx="52.749" cy="118.235" r="14.75"/>
			
				<line style="fill:none;stroke:#6498A5;stroke-linecap:round;stroke-linejoin:round;stroke-miterlimit:10;" x1="48.695" y1="130.235" x2="39.749" y2="157.485"/>
			<path style="fill:#FEF9F3;" d="M46.765,116.363c0-1.819,1.475-3.293,3.293-3.293c1.114,0,2.095,0.557,2.691,1.403
				c0.596-0.847,1.577-1.403,2.691-1.403c1.819,0,3.293,1.474,3.293,3.293c0,3.774-5.984,7.036-5.984,7.036
				S46.765,120.433,46.765,116.363z"/>
		</g>
	</g>
</g>
</svg>
