<?xml version="1.0" encoding="utf-8"?>
<!-- Generator: Adobe Illustrator 27.5.0, SVG Export Plug-In . SVG Version: 6.00 Build 0)  -->
<svg version="1.1" xmlns="http://www.w3.org/2000/svg" xmlns:xlink="http://www.w3.org/1999/xlink" x="0px" y="0px"
	 viewBox="0 0 500 500" style="enable-background:new 0 0 500 500;" xml:space="preserve">
<g id="BACKGROUND">
</g>
<g id="OBJECTS">
	<g>
		<path style="opacity:0.19;fill:#276347;" d="M190.349,77.043c0,0-148.131,21.982-146.487,183.507
			c1.644,161.525,219.019,251.284,344.318,150.18c96.806-78.113,50.581-192.254-16.798-205.141
			C322.607,196.26,305.985,57.088,190.349,77.043z"/>
		<g>
			<path style="fill:none;stroke:#276347;stroke-miterlimit:10;" d="M257.852,143.93c-2.329,0.73-4.657,1.461-6.986,2.191
				c-6.356-4.107-6.761-13.261-4.572-20.445c5.658-18.572,25.035-32.183,44.7-31.397c4.574,0.183,9.196,1.092,13.174,3.312
				c9.234,5.151,13.342,16.76,11.805,27.115c-1.537,10.355-7.773,19.519-15.123,27.096c-8.021,8.269-20.027,15.481-30.696,11.034
				c-8.659-3.609-12.777-14.334-10.478-23.325c2.299-8.991,9.815-16.052,18.38-19.92c8.566-3.868,18.132-4.954,27.534-5.437
				c13.188-0.677,27.061-0.099,38.497,6.365c11.435,6.464,19.426,20.404,15.08,32.688c-3.047,8.612-11.192,14.482-19.516,18.491
				c-7.688,3.703-16.118,6.337-24.659,5.991c-8.541-0.345-17.206-4.01-22.127-10.876c-2.088-2.915-3.471-6.421-3.334-9.99
				c0.376-9.8,11.345-15.768,21.168-17.44c19.924-3.393,41.295,3.033,55.848,16.793c10.723,10.138,17.769,26.309,11.342,39.548
				c-3.586,7.389-10.91,12.636-18.891,14.938c-7.981,2.302-16.559,1.895-24.664,0.114c-11.76-2.584-23.711-8.939-28.151-19.959
				c-0.749-1.86-1.266-3.933-0.689-5.855c1.093-3.648,5.457-5.171,9.272-5.766c13.232-2.063,27.013,0.621,38.908,6.641
				c8.732,4.419,16.661,10.759,21.644,19.084c4.983,8.325,6.75,18.767,3.46,27.893c-5.145,14.272-21.75,22.361-37.09,21.429
				c-15.34-0.931-29.295-9.205-40.744-19.268c-4.098-3.602-8.088-7.649-9.861-12.77c-1.773-5.121-0.72-11.559,3.775-14.695
				c4.132-2.882,9.857-2.238,14.52-0.323c7.427,3.049,13.393,8.867,17.906,15.421c5.273,7.657,8.835,16.71,8.625,25.971
				c-0.21,9.261-4.584,18.67-12.456,23.77c-10.28,6.661-24.628,4.696-34.569-2.39c-9.941-7.086-16.035-18.344-19.712-29.877
				c-2.02-6.335-2.974-14.316,2.135-18.675c3.789-3.232,9.771-2.974,14.026-0.391c4.255,2.584,7.014,7.024,8.838,11.607
				c7.055,17.727,0.952,39.714-14.296,51.503c-11.116,8.595-27.869,11.342-39.343,3.284c-5.543-3.893-9.29-9.777-12.325-15.779
				c-3.312-6.55-5.989-13.613-6.051-20.938c-0.061-7.325,2.86-14.98,8.91-19.265c7.215-5.11,18.207-4.065,24.26,2.307
				c3.392,3.571,5.179,8.351,6.213,13.137c3.832,17.74-3.832,38.925-20.961,45.689c-12.308,4.86-27.087,1.193-36.911-7.527
				c-9.824-8.72-14.98-21.78-15.783-34.793c-0.522-8.454,0.747-17.24,5.161-24.525c4.413-7.285,12.327-12.821,20.931-13.023
				c8.604-0.202,17.344,5.808,18.784,14.155c0.923,5.35-1.058,10.832-3.949,15.465c-8.113,13.003-23.449,20.802-38.906,21.733
				c-9.984,0.601-20.419-1.585-28.271-7.659c-7.851-6.074-12.6-16.421-10.39-26.027c1.768-7.687,7.551-13.935,14.032-18.573
				c11.656-8.343,26.278-12.576,40.644-11.768c5.341,0.3,11.511,1.933,13.474,6.826c1.432,3.571-0.052,7.802-2.777,10.562
				c-2.725,2.759-6.474,4.294-10.21,5.418c-11.15,3.356-23.222,3.66-34.513,0.87c-10.575-2.614-21.258-8.874-24.497-19.12
				c-3.861-12.217,4.899-25.78,16.776-31.04c11.877-5.261,25.716-3.882,38.221-0.386c4.36,1.219,8.86,2.815,11.84,6.173
				c2.979,3.358,3.782,8.976,0.586,12.154c-2.217,2.204-5.624,2.673-8.769,2.791c-11.804,0.44-23.707-2.445-33.938-8.225
				c-6.252-3.533-12.008-8.277-15.412-14.532c-3.404-6.255-4.142-14.184-0.706-20.443c4.77-8.691,15.722-11.908,25.664-13.199
				c16.765-2.177,36.24-0.084,46.409,13.177c2.376,3.098,4.14,7.187,2.74,10.826c-2.114,5.497-9.558,6.382-15.51,5.99
				c-10.901-0.717-21.857-2.694-31.696-7.348c-9.838-4.653-18.524-12.179-23.075-21.944c-1.453-3.117-2.486-6.522-2.221-9.947
				c0.324-4.184,2.565-8.032,5.38-11.191c10.251-11.501,28.186-14.536,42.818-9.481c14.632,5.055,26.008,17.036,32.955,30.677
				c1.793,3.521,3.359,7.534,2.248,11.326c-2.079,7.097-11.743,8.699-19.06,7.11c-15.224-3.305-28.26-14.96-33.057-29.556
				c-1.154-3.512-1.861-7.281-1.105-10.903c1.293-6.194,6.559-10.811,11.98-14.214c10.345-6.494,23.36-10.314,34.94-6.403
				c12.395,4.186,20.264,16.025,26.001,27.617c3.19,6.445,5.964,14.342,2.177,20.487c-2.895,4.697-9.041,6.768-14.569,6.082
				c-5.529-0.686-10.494-3.684-14.757-7.207c-6.614-5.465-12.069-12.531-14.494-20.694s-1.551-17.468,3.351-24.494
				c8.693-12.458,27.993-14.278,41.305-6.827c13.312,7.451,21.262,21.783,25.311,36.328c0.811,2.914,1.495,5.998,0.766,8.937
				c-1.126,4.536-5.495,7.762-10.102,8.875c-7.23,1.747-15.162-1.031-20.326-6.288c-5.164-5.257-7.699-12.687-7.792-20.01
				c-0.054-4.269,0.71-8.648,2.935-12.319c3.448-5.688,9.895-8.938,16.299-10.965c12.366-3.915,25.846-4.32,38.41-1.154
				c4.932,1.243,9.94,3.168,13.25,6.97c2.851,3.275,4.133,7.594,4.905,11.844c1.972,10.852,0.783,22.936-6.376,31.442
				c-7.158,8.507-21.383,11.572-29.855,4.378c-6.525-5.54-7.891-15.106-6.564-23.503c0.868-5.496,2.842-11.078,6.981-14.873
				c3.521-3.228,8.257-4.847,12.957-5.844c10.653-2.26,22.18-1.644,31.848,3.263c9.668,4.907,17.141,14.476,17.934,25.164
				c0.793,10.688-5.996,21.918-16.424,25.04"/>
		</g>
		<g>
			<g>
				<g>
					<polygon style="fill:#8CB4EB;" points="322.16,54.551 333.285,68.657 341.052,20.687 					"/>
					<polyline style="opacity:0.52;fill:#8CB4EB;" points="336.587,45.279 329.536,54.616 333.285,68.657 337.881,38.937 					"/>
				</g>
				<g>
					<polygon style="fill:#8CB4EB;" points="311.471,57.556 341.052,20.687 322.578,54.685 					"/>
					<polygon style="opacity:0.41;fill:#8CB4EB;" points="311.471,57.556 341.052,20.687 322.578,54.685 					"/>
				</g>
				<g>
					<polygon style="fill:#8CB4EB;" points="346.468,49.479 329.536,54.616 341.187,20.271 					"/>
					<polygon style="opacity:0.41;fill:#8CB4EB;" points="346.468,49.479 329.536,54.616 341.187,20.271 					"/>
				</g>
			</g>
			<path style="fill:none;stroke:#8CB4EB;stroke-width:0.7778;stroke-miterlimit:10;stroke-dasharray:3.7648;" d="M300.624,182.488
				c3.267,17.421,77.74,79.021,103.807,28.487c26.067-50.534,5.987-57.683-4.622-46.466c-23.943,25.313,13.586,52.221,41.513,36.324
				c28.886-16.443,28.816-60.655-32.873-71.357c-61.689-10.702-82.72-31.238-75.651-58.875"/>
		</g>
		<g>
			<g>
				<g>
					<polygon style="fill:#8CB4EB;" points="125.908,56.119 141.174,70.716 80.105,70.622 					"/>
					<polyline style="opacity:0.52;fill:#8CB4EB;" points="111.509,70.146 124.508,64.145 141.174,70.716 103.382,70.423 					"/>
				</g>
				<g>
					<polygon style="fill:#8CB4EB;" points="131.782,45.039 80.105,70.622 125.99,56.597 					"/>
					<polygon style="opacity:0.41;fill:#8CB4EB;" points="131.782,45.039 80.105,70.622 125.99,56.597 					"/>
				</g>
				<g>
					<polygon style="fill:#8CB4EB;" points="114.736,81.629 124.508,64.145 79.563,70.695 					"/>
					<polygon style="opacity:0.41;fill:#8CB4EB;" points="114.736,81.629 124.508,64.145 79.563,70.695 					"/>
				</g>
			</g>
			<path style="fill:none;stroke:#8CB4EB;stroke-width:1.047;stroke-miterlimit:10;stroke-dasharray:5.0679;" d="M230.217,173.922
				c0,0-45.081,5.926-52.482,37.925c-9.078,39.249-88.804,50.736-107.018,5.798c-18.214-44.938,19.131-29.55,29.64-17.121
				c35.473,41.954-77.671,56.022-72.161-7.06C33.705,130.382,229.5,110.5,139.752,71.129"/>
		</g>
		<g>
			<g>
				<g>
					<path style="fill:#5B2049;" d="M379.088,171.066v4.405c9.121,0,17.567,3.637,23.781,10.24
						c5.911,6.281,9.003,14.469,8.707,23.056c-0.297,8.606-3.96,16.585-10.314,22.467c-6.054,5.604-13.945,8.69-22.221,8.69
						c-9.122,0-17.568-3.637-23.782-10.24c-5.911-6.281-9.003-14.469-8.707-23.056c0.297-8.606,3.96-16.585,10.314-22.466
						c6.053-5.603,13.945-8.689,22.221-8.69L379.088,171.066 M379.086,171.066c-9.031,0-18.088,3.266-25.214,9.862
						c-14.919,13.81-15.735,36.99-1.822,51.774c7.267,7.722,17.114,11.626,26.99,11.626c9.031,0,18.088-3.266,25.214-9.862
						c14.919-13.81,15.735-36.99,1.822-51.774C398.809,174.969,388.963,171.065,379.086,171.066L379.086,171.066z"/>
				</g>
				
					<ellipse transform="matrix(0.9988 -0.0499 0.0499 0.9988 -9.7903 19.0736)" style="fill:#F5BD79;" cx="377.103" cy="205.613" rx="36.937" ry="36.63"/>
				<path style="fill:#D3D3D3;" d="M353.172,231.964c3.125,3.321,6.73,5.929,10.607,7.831c12.784,4.881,27.821,2.486,38.515-7.413
					c14.919-13.81,15.735-36.99,1.822-51.774c-3.125-3.321-6.73-5.929-10.607-7.831c-12.784-4.881-27.821-2.486-38.515,7.413
					C340.075,194,339.259,217.18,353.172,231.964z M404.717,185.75c11.811,12.551,11.116,32.299-1.549,44.023
					c-12.665,11.724-32.578,11.051-44.389-1.5c-11.811-12.551-11.116-32.3,1.549-44.023
					C372.993,172.526,392.906,173.199,404.717,185.75z"/>
				<g>
					<path style="fill:#C3395B;" d="M377.127,168.982v4.476c9.102,0,17.529,3.629,23.73,10.218
						c5.898,6.267,8.983,14.437,8.688,23.005c-0.296,8.587-3.951,16.548-10.291,22.417c-6.041,5.592-13.915,8.671-22.173,8.671
						c-9.102,0-17.53-3.629-23.731-10.218c-5.898-6.268-8.984-14.438-8.688-23.005c0.296-8.587,3.951-16.548,10.291-22.417
						c6.04-5.591,13.915-8.671,22.174-8.671L377.127,168.982 M377.125,168.982c-9.031,0-18.088,3.266-25.214,9.862
						c-14.919,13.81-15.734,36.99-1.822,51.774c7.267,7.722,17.114,11.626,26.99,11.626c9.031,0,18.088-3.266,25.214-9.862
						c14.919-13.81,15.734-36.99,1.822-51.774C396.848,172.886,387.002,168.982,377.125,168.982L377.125,168.982z"/>
				</g>
				<g style="opacity:0.35;">
					<path style="fill:#FFFFFF;" d="M372.183,240.162c11.478,0.858,23.06-3.323,30.783-11.954c-0.868,1.154-1.682,2.381-2.684,3.426
						C393.378,239.234,382.138,242.444,372.183,240.162L372.183,240.162z"/>
				</g>
			</g>
			<g>
				
					<line style="fill:none;stroke:#86386B;stroke-width:1.7773;stroke-linecap:round;stroke-miterlimit:10;" x1="357.812" y1="222.743" x2="363.294" y2="217.669"/>
				
					<line style="fill:none;stroke:#86386B;stroke-width:1.7773;stroke-linecap:round;stroke-miterlimit:10;" x1="369.025" y1="230.007" x2="371.217" y2="222.896"/>
				
					<line style="fill:none;stroke:#86386B;stroke-width:1.7773;stroke-linecap:round;stroke-miterlimit:10;" x1="382.403" y1="230.734" x2="380.716" y2="223.492"/>
				
					<line style="fill:none;stroke:#86386B;stroke-width:1.7773;stroke-linecap:round;stroke-miterlimit:10;" x1="394.36" y1="224.73" x2="389.248" y2="219.297"/>
				
					<line style="fill:none;stroke:#86386B;stroke-width:1.7773;stroke-linecap:round;stroke-miterlimit:10;" x1="401.693" y1="213.603" x2="394.525" y2="211.436"/>
				
					<line style="fill:none;stroke:#86386B;stroke-width:1.7773;stroke-linecap:round;stroke-miterlimit:10;" x1="402.437" y1="200.336" x2="395.134" y2="202.014"/>
				
					<line style="fill:none;stroke:#86386B;stroke-width:1.7773;stroke-linecap:round;stroke-miterlimit:10;" x1="396.393" y1="188.482" x2="390.911" y2="193.557"/>
				
					<line style="fill:none;stroke:#86386B;stroke-width:1.7773;stroke-linecap:round;stroke-miterlimit:10;" x1="385.18" y1="181.219" x2="382.989" y2="188.33"/>
				
					<line style="fill:none;stroke:#86386B;stroke-width:1.7773;stroke-linecap:round;stroke-miterlimit:10;" x1="371.802" y1="180.492" x2="373.489" y2="187.734"/>
				
					<line style="fill:none;stroke:#86386B;stroke-width:1.7773;stroke-linecap:round;stroke-miterlimit:10;" x1="359.845" y1="186.496" x2="364.957" y2="191.928"/>
				
					<line style="fill:none;stroke:#86386B;stroke-width:1.7773;stroke-linecap:round;stroke-miterlimit:10;" x1="352.512" y1="197.623" x2="359.68" y2="199.79"/>
				
					<line style="fill:none;stroke:#86386B;stroke-width:1.7773;stroke-linecap:round;stroke-miterlimit:10;" x1="351.768" y1="210.89" x2="359.071" y2="209.212"/>
				<path style="fill:#F5BD79;" d="M362.46,190.374c8.397-7.773,21.553-7.329,29.384,0.993c7.831,8.322,7.372,21.369-1.025,29.142
					c-8.397,7.773-21.553,7.329-29.384-0.993C353.603,211.195,354.062,198.148,362.46,190.374z"/>
			</g>
			<g>
				<g style="opacity:0.35;">
					<path style="fill:#CE7CA1;" d="M378.579,205.133c-1.137,1.775-2.373,3.468-3.691,5.098c-0.655,0.807-1.091,1.85-2.025,2.355
						c-1.018,0.596-2.053,0.952-3.342,0.932l-0.239-0.259c0.08-1.285,0.514-2.292,1.187-3.26c0.575-0.893,1.649-1.247,2.504-1.838
						c1.727-1.189,3.51-2.29,5.367-3.287L378.579,205.133L378.579,205.133z"/>
					<path style="fill:#CE7CA1;" d="M378.284,204.991c-0.216-4.209-0.33-8.419-0.32-12.629c-0.303-4.289-0.02-8.605,2.141-12.451
						c0,0,0.351,0.025,0.351,0.025c1.583,4.118,1.24,8.429,0.319,12.63c-0.598,4.167-1.319,8.317-2.141,12.451
						C378.635,205.016,378.284,204.991,378.284,204.991L378.284,204.991z"/>
				</g>
				<g>
					<g>
						<g>
							<path style="fill:#FFFFFF;" d="M377.06,205.892c-1.137,1.775-2.373,3.468-3.691,5.098c-0.655,0.807-1.091,1.85-2.025,2.355
								c-1.018,0.596-2.053,0.952-3.342,0.932l-0.239-0.259c0.08-1.285,0.514-2.291,1.187-3.26c0.575-0.893,1.649-1.247,2.504-1.838
								c1.726-1.189,3.51-2.29,5.367-3.287L377.06,205.892L377.06,205.892z"/>
						</g>
						<g>
							<path style="fill:#FFFFFF;" d="M376.765,205.75c-0.216-4.209-0.33-8.419-0.32-12.629c-0.303-4.289-0.02-8.605,2.141-12.451
								c0,0,0.351,0.026,0.351,0.026c1.583,4.118,1.24,8.429,0.319,12.63c-0.598,4.167-1.319,8.317-2.141,12.451L376.765,205.75
								L376.765,205.75z"/>
						</g>
					</g>
				</g>
			</g>
			<path style="opacity:0.26;fill:#FFFFFF;" d="M391.116,229.831c0,0,11.581-8.921,12.988-22.22s-6.113-21.934-6.113-21.934
				S405.009,208.573,391.116,229.831z"/>
			<g style="opacity:0.59;">
				<g>
					<path style="fill:#FFFFFF;" d="M376.872,205.932c-1.728-1.201-3.371-2.497-4.947-3.873c-0.78-0.684-1.805-1.157-2.273-2.109
						c-0.556-1.039-0.871-2.085-0.802-3.371l0.268-0.229c1.28,0.127,2.268,0.598,3.209,1.306c0.869,0.607,1.181,1.692,1.738,2.568
						c1.12,1.768,2.151,3.589,3.074,5.479L376.872,205.932L376.872,205.932z"/>
				</g>
				<g>
					<path style="fill:#FFFFFF;" d="M376.924,205.661c3.376-2.345,6.807-4.604,10.303-6.758c3.399-2.465,7.133-4.438,11.443-4.57
						c0,0,0.163,0.313,0.163,0.313c-2.579,3.456-6.335,5.385-10.303,6.758c-3.768,1.631-7.586,3.148-11.443,4.57L376.924,205.661
						L376.924,205.661z"/>
				</g>
			</g>
			<g style="opacity:0.26;">
				<g>
					<path style="fill:#FFFFFF;" d="M376.579,205.529c0.91-2.215,1.935-4.369,3.052-6.477c0.556-1.046,0.849-2.277,1.742-3.086
						c0.944-0.909,1.964-1.605,3.327-1.97l0.288,0.203c0.116,1.406-0.196,2.601-0.734,3.796c-0.461,1.113-1.521,1.804-2.318,2.68
						c-1.608,1.762-3.29,3.452-5.069,5.056L376.579,205.529L376.579,205.529z"/>
				</g>
				<g>
					<path style="fill:#FFFFFF;" d="M376.858,205.517c2.937,2.659,5.802,5.391,8.579,8.211c1.385,1.406,3.017,2.604,4.088,4.276
						c1.139,1.709,2.102,3.469,2.61,5.53c0,0-0.269,0.228-0.269,0.228c-3.837-1.635-6.459-4.755-8.579-8.211
						c-2.328-3.2-4.555-6.474-6.698-9.806L376.858,205.517L376.858,205.517z"/>
				</g>
			</g>
		</g>
		<g>
			<g>
				<g>
					<path style="fill:#5B2049;" d="M165.395,136.881l0,2.775h0.001c7.266,0,13.834,3.678,17.569,9.839
						c2.804,4.626,3.63,10.06,2.326,15.302c-1.314,5.281-4.629,9.736-9.333,12.544c-3.198,1.909-6.849,2.917-10.559,2.917
						c-7.268,0-13.836-3.678-17.571-9.839c-2.804-4.626-3.63-10.06-2.326-15.302c1.314-5.282,4.629-9.736,9.333-12.544
						c3.198-1.908,6.849-2.917,10.559-2.917L165.395,136.881 M165.394,136.881c-4.085,0-8.224,1.068-11.98,3.309
						c-11.013,6.573-14.576,20.75-7.958,31.667c4.361,7.193,12.052,11.175,19.944,11.175c4.085,0,8.224-1.068,11.98-3.309
						c11.013-6.572,14.576-20.75,7.958-31.667C180.977,140.863,173.285,136.88,165.394,136.881L165.394,136.881z"/>
				</g>
				<path style="fill:#F5BD79;" d="M143.903,172.783c-6.618-10.917-3.055-25.094,7.958-31.667
					c11.013-6.573,25.306-3.051,31.924,7.866c6.618,10.917,3.055,25.095-7.958,31.667
					C164.814,187.222,150.521,183.7,143.903,172.783z"/>
				<path style="fill:#D3D3D3;" d="M177.069,178.941c2.474-1.476,4.568-3.339,6.259-5.459c4.713-7.174,5.202-16.674,0.458-24.5
					c-6.618-10.917-20.911-14.438-31.924-7.866c-2.474,1.476-4.568,3.339-6.259,5.459c-4.713,7.174-5.202,16.674-0.457,24.5
					C151.762,181.992,166.055,185.514,177.069,178.941z M155.134,141.419c9.35-5.58,21.527-2.579,27.145,6.688
					c5.619,9.268,2.583,21.347-6.766,26.926c-9.35,5.58-21.527,2.579-27.145-6.688C142.749,159.078,145.785,146.999,155.134,141.419
					z"/>
				<g>
					<path style="fill:#C3395B;" d="M163.843,137.807l0,2.819h0.001c7.251,0,13.804,3.67,17.531,9.818
						c2.798,4.615,3.622,10.038,2.321,15.268c-1.311,5.27-4.619,9.715-9.313,12.516c-3.191,1.905-6.834,2.911-10.536,2.911
						c-7.252,0-13.806-3.67-17.533-9.818c-2.798-4.615-3.622-10.038-2.321-15.268c1.311-5.27,4.619-9.715,9.313-12.516
						c3.191-1.904,6.834-2.911,10.536-2.911L163.843,137.807 M163.841,137.807c-4.085,0-8.224,1.068-11.98,3.309
						c-11.013,6.572-14.576,20.75-7.958,31.667c4.361,7.193,12.052,11.175,19.944,11.175c4.085,0,8.224-1.068,11.98-3.309
						c11.013-6.572,14.576-20.75,7.958-31.667C179.424,141.789,171.733,137.806,163.841,137.807L163.841,137.807z"/>
				</g>
				<g style="opacity:0.35;">
					<path style="fill:#FFFFFF;" d="M184.661,168.395c2.06-6.895,0.952-14.566-3.38-20.368c0.599,0.677,1.25,1.33,1.767,2.074
						C186.852,155.295,187.389,162.6,184.661,168.395L184.661,168.395z"/>
				</g>
			</g>
			<g>
				
					<line style="fill:none;stroke:#86386B;stroke-width:1.1194;stroke-linecap:round;stroke-miterlimit:10;" x1="171.951" y1="174.904" x2="169.519" y2="170.892"/>
				
					<line style="fill:none;stroke:#86386B;stroke-width:1.1194;stroke-linecap:round;stroke-miterlimit:10;" x1="177.937" y1="169" x2="173.807" y2="166.733"/>
				
					<line style="fill:none;stroke:#86386B;stroke-width:1.1194;stroke-linecap:round;stroke-miterlimit:10;" x1="180.147" y1="160.921" x2="175.426" y2="161.007"/>
				
					<line style="fill:none;stroke:#86386B;stroke-width:1.1194;stroke-linecap:round;stroke-miterlimit:10;" x1="177.989" y1="152.832" x2="173.942" y2="155.247"/>
				
					<line style="fill:none;stroke:#86386B;stroke-width:1.1194;stroke-linecap:round;stroke-miterlimit:10;" x1="172.04" y1="146.9" x2="169.752" y2="150.997"/>
				
					<line style="fill:none;stroke:#86386B;stroke-width:1.1194;stroke-linecap:round;stroke-miterlimit:10;" x1="163.896" y1="144.715" x2="163.979" y2="149.396"/>
				
					<line style="fill:none;stroke:#86386B;stroke-width:1.1194;stroke-linecap:round;stroke-miterlimit:10;" x1="155.738" y1="146.862" x2="158.17" y2="150.873"/>
				
					<line style="fill:none;stroke:#86386B;stroke-width:1.1194;stroke-linecap:round;stroke-miterlimit:10;" x1="149.752" y1="152.766" x2="153.881" y2="155.032"/>
				
					<line style="fill:none;stroke:#86386B;stroke-width:1.1194;stroke-linecap:round;stroke-miterlimit:10;" x1="147.542" y1="160.845" x2="152.262" y2="160.759"/>
				
					<line style="fill:none;stroke:#86386B;stroke-width:1.1194;stroke-linecap:round;stroke-miterlimit:10;" x1="149.7" y1="168.934" x2="153.746" y2="166.519"/>
				
					<line style="fill:none;stroke:#86386B;stroke-width:1.1194;stroke-linecap:round;stroke-miterlimit:10;" x1="155.648" y1="174.866" x2="157.937" y2="170.768"/>
				
					<line style="fill:none;stroke:#86386B;stroke-width:1.1194;stroke-linecap:round;stroke-miterlimit:10;" x1="163.792" y1="177.051" x2="163.71" y2="172.369"/>
				
					<ellipse transform="matrix(0.9988 -0.0497 0.0497 0.9988 -7.8088 8.3364)" style="fill:#F5BD79;" cx="163.677" cy="161.144" rx="13.095" ry="12.987"/>
			</g>
			<g>
				<g style="opacity:0.35;">
					<path style="fill:#CE7CA1;" d="M164.967,160.465c0.942,0.927,1.838,1.894,2.674,2.911c0.415,0.504,1,0.905,1.194,1.542
						c0.207,0.63,0.339,1.305,0.15,2.175l-0.19,0.115c-1.594-0.444-2.29-1.475-2.674-2.911c-0.516-1.211-0.959-2.453-1.345-3.717
						L164.967,160.465L164.967,160.465z"/>
					<path style="fill:#CE7CA1;" d="M164.842,160.63c-2.293-0.336-5.579-0.983-7.884-1.445c-2.725-0.382-5.276-1.074-7.457-2.939
						c0,0,0.061-0.213,0.061-0.213c2.838-0.431,5.369,0.329,7.884,1.445c2.21,0.829,5.32,2.008,7.457,2.939L164.842,160.63
						L164.842,160.63z"/>
				</g>
				<g>
					<g>
						<g>
							<path style="fill:#FFFFFF;" d="M164.011,160.944c0.942,0.926,1.838,1.894,2.673,2.911c0.415,0.504,1,0.905,1.194,1.542
								c0.207,0.63,0.339,1.305,0.15,2.175l-0.19,0.115c-1.594-0.445-2.29-1.475-2.673-2.911c-0.516-1.211-0.959-2.453-1.345-3.717
								L164.011,160.944L164.011,160.944z"/>
						</g>
						<g>
							<path style="fill:#FFFFFF;" d="M163.885,161.108c-2.293-0.336-5.579-0.983-7.884-1.445c-2.725-0.382-5.276-1.074-7.457-2.939
								l0.061-0.213c2.838-0.431,5.369,0.329,7.884,1.445c2.21,0.829,5.32,2.008,7.457,2.939
								C163.946,160.894,163.885,161.108,163.885,161.108L163.885,161.108z"/>
						</g>
					</g>
				</g>
			</g>
			<path style="opacity:0.26;fill:#FFFFFF;" d="M180.732,155.479c0,0-4.02-8.239-12.097-10.834
				c-8.077-2.594-14.43,0.875-14.43,0.875S169.352,144.218,180.732,155.479z"/>
			<g style="opacity:0.59;">
				<g>
					<path style="fill:#FFFFFF;" d="M164.011,161.067c-0.981,0.895-2,1.742-3.065,2.525c-0.527,0.39-0.962,0.954-1.611,1.116
						c-0.643,0.175-1.327,0.273-2.188,0.04l-0.105-0.196c0.533-1.572,1.606-2.215,3.065-2.525c1.242-0.454,2.511-0.835,3.799-1.156
						C163.906,160.871,164.011,161.067,164.011,161.067L164.011,161.067z"/>
				</g>
				<g>
					<path style="fill:#FFFFFF;" d="M163.851,160.999c-0.897-2.042-2.041-5.053-2.837-7.171c-1.083-2.423-1.807-4.857-1.342-7.594
						c0,0,0.214-0.06,0.214-0.06c1.83,2.087,2.49,4.54,2.837,7.171c0.433,2.23,1.033,5.372,1.342,7.594L163.851,160.999
						L163.851,160.999z"/>
				</g>
			</g>
			<g style="opacity:0.26;">
				<g>
					<path style="fill:#FFFFFF;" d="M163.725,161.193c-1.247-0.847-2.455-1.743-3.614-2.7c-0.577-0.474-1.297-0.813-1.686-1.464
						c-0.399-0.641-0.735-1.343-0.798-2.302l0.161-0.152c1.798,0.231,2.811,1.255,3.614,2.7c0.887,1.213,1.711,2.472,2.483,3.766
						L163.725,161.193L163.725,161.193z"/>
				</g>
				<g>
					<path style="fill:#FFFFFF;" d="M163.753,161.019c2.042-1.451,4.119-2.848,6.237-4.179c2.084-1.535,4.252-2.72,6.964-2.805
						c0,0,0.104,0.196,0.104,0.196c-1.597,2.194-3.796,3.32-6.237,4.179c-2.292,1.003-4.616,1.934-6.964,2.806L163.753,161.019
						L163.753,161.019z"/>
				</g>
			</g>
		</g>
		<g>
			<g>
				<g>
					<polygon style="fill:#8CB4EB;" points="423.43,75.307 418.091,95.024 467.431,69.117 					"/>
					<polyline style="opacity:0.52;fill:#8CB4EB;" points="441.806,81.963 428.415,82.007 418.091,95.024 448.512,78.778 					"/>
				</g>
				<g>
					<polygon style="fill:#8CB4EB;" points="413.362,67.724 467.431,69.117 423.593,75.776 					"/>
					<polygon style="opacity:0.41;fill:#8CB4EB;" points="413.362,67.724 467.431,69.117 423.593,75.776 					"/>
				</g>
				<g>
					<polygon style="fill:#8CB4EB;" points="444.708,93.76 428.415,82.007 467.905,68.954 					"/>
					<polygon style="opacity:0.41;fill:#8CB4EB;" points="444.708,93.76 428.415,82.007 467.905,68.954 					"/>
				</g>
			</g>
			<path style="fill:none;stroke:#8CB4EB;stroke-width:0.9409;stroke-miterlimit:10;stroke-dasharray:4.5542;" d="M245.416,174.644
				c-50.882,0.134-89.061-72.44-11.282-102.825c76.901-30.042,132.669,47.125,180.175,20.938"/>
		</g>
		<g>
			<g>
				<path style="fill:#C3395B;" d="M348.374,295.63c-0.087-2.021-2.086-2.979-4.497-2.875c-1.634,0.07-3.177,0.715-4.428,1.794
					c-1.764,1.522-4.184,2.023-6.31,1.072l-0.509-0.228c-4.221-1.888-4.941-7.714-1.174-10.397c3.434-2.445,8.014-3.998,13.862-4.25
					c10.23-0.441,18.039,3.532,18.39,11.676c0.43,9.97-9.92,12.177-9.704,17.195l-13.423,0.579
					C340.242,302.312,348.546,299.604,348.374,295.63z M339.136,320.574c-0.188-4.366,3.188-7.841,8.27-8.06
					c5.082-0.219,8.743,2.952,8.932,7.318c0.185,4.3-3.181,7.97-8.263,8.189C342.992,328.24,339.321,324.874,339.136,320.574z"/>
			</g>
		</g>
		<g>
			<g>
				<path style="fill:#C3395B;" d="M165.045,269.132c-0.049-1.491-1.517-2.212-3.296-2.153c-1.206,0.04-2.349,0.504-3.279,1.291
					c-1.312,1.11-3.101,1.461-4.662,0.744l-0.373-0.172c-3.1-1.424-3.588-5.727-0.79-7.677c2.551-1.778,5.94-2.89,10.256-3.033
					c7.549-0.25,13.28,2.738,13.479,8.747c0.244,7.357-7.407,8.909-7.284,12.612l-9.905,0.328
					C158.997,274.001,165.142,272.065,165.045,269.132z M158.047,287.462c-0.107-3.222,2.409-5.76,6.159-5.884
					c3.75-0.124,6.428,2.242,6.534,5.464c0.105,3.173-2.405,5.855-6.155,5.979C160.835,293.145,158.152,290.635,158.047,287.462z"/>
			</g>
		</g>
		<g>
			<g>
				<path style="fill:#C3395B;" d="M377.283,126.321c-0.064-1.49-1.539-2.197-3.317-2.12c-1.206,0.052-2.344,0.527-3.266,1.323
					c-1.301,1.123-3.086,1.492-4.655,0.791l-0.375-0.168c-3.114-1.393-3.645-5.69-0.866-7.669c2.533-1.803,5.911-2.949,10.225-3.135
					c7.546-0.325,13.306,2.605,13.565,8.613c0.317,7.354-7.318,8.982-7.158,12.684l-9.901,0.427
					C371.284,131.25,377.409,129.252,377.283,126.321z M370.468,144.72c-0.139-3.221,2.351-5.784,6.1-5.945
					c3.749-0.162,6.45,2.178,6.588,5.398c0.137,3.172-2.346,5.879-6.095,6.04C373.313,150.375,370.605,147.892,370.468,144.72z"/>
			</g>
		</g>
		<g>
			<path style="fill:#86386B;" d="M339.68,152.963c-0.042-0.964-0.996-1.421-2.146-1.372c-0.78,0.034-1.516,0.341-2.113,0.856
				c-0.842,0.727-1.997,0.965-3.011,0.512l-0.243-0.109c-2.015-0.901-2.358-3.682-0.56-4.962c1.639-1.167,3.824-1.908,6.615-2.028
				c4.882-0.21,8.609,1.685,8.776,5.572c0.205,4.758-4.734,5.812-4.631,8.206l-6.406,0.276
				C335.798,156.152,339.761,154.86,339.68,152.963z M335.271,164.867c-0.09-2.084,1.521-3.742,3.947-3.846
				c2.426-0.105,4.173,1.409,4.262,3.492c0.089,2.052-1.518,3.803-3.943,3.908C337.111,168.526,335.359,166.919,335.271,164.867z"/>
		</g>
		<g>
			<path style="fill:#86386B;" d="M135.037,253.327c-0.039-1.182-1.203-1.754-2.613-1.708c-0.956,0.032-1.863,0.399-2.6,1.023
				c-1.04,0.88-2.459,1.159-3.697,0.59l-0.296-0.136c-2.458-1.129-2.845-4.541-0.626-6.087c2.022-1.41,4.71-2.292,8.132-2.405
				c5.986-0.198,10.53,2.171,10.688,6.936c0.193,5.833-5.873,7.064-5.776,10l-7.854,0.26
				C130.242,257.187,135.114,255.652,135.037,253.327z M129.489,267.861c-0.085-2.555,1.91-4.567,4.884-4.666
				c2.974-0.098,5.097,1.778,5.181,4.332c0.083,2.516-1.907,4.643-4.881,4.741C131.699,272.368,129.572,270.377,129.489,267.861z"/>
		</g>
		<g>
			<path style="fill:#86386B;" d="M121.56,142.94c-0.036-0.847-0.875-1.249-1.886-1.205c-0.685,0.029-1.332,0.3-1.857,0.752
				c-0.74,0.638-1.755,0.848-2.646,0.449l-0.213-0.095c-1.77-0.792-2.072-3.235-0.493-4.36c1.44-1.025,3.361-1.677,5.813-1.782
				c4.29-0.185,7.565,1.481,7.712,4.896c0.18,4.181-4.16,5.107-4.07,7.211l-5.629,0.243
				C118.149,145.742,121.631,144.607,121.56,142.94z M117.685,153.4c-0.079-1.831,1.337-3.288,3.468-3.38
				c2.131-0.092,3.667,1.238,3.746,3.069c0.078,1.803-1.334,3.342-3.465,3.434C119.302,156.615,117.763,155.204,117.685,153.4z"/>
		</g>
		<g>
			<path style="fill:#86386B;" d="M133.529,187.067c-0.054-1.263-1.305-1.862-2.812-1.797c-1.022,0.044-1.987,0.447-2.768,1.122
				c-1.103,0.952-2.616,1.265-3.945,0.67l-0.318-0.142c-2.639-1.18-3.09-4.823-0.734-6.5c2.147-1.529,5.01-2.5,8.667-2.657
				c6.396-0.276,11.279,2.208,11.498,7.3c0.269,6.233-6.202,7.614-6.067,10.751l-8.392,0.362
				C128.444,191.245,133.636,189.552,133.529,187.067z M127.753,202.662c-0.118-2.73,1.993-4.902,5.171-5.039
				s5.467,1.846,5.584,4.576c0.116,2.688-1.989,4.983-5.166,5.12C130.163,207.456,127.868,205.351,127.753,202.662z"/>
		</g>
		<g>
			<defs>
				<path id="SVGID_1_" d="M190.349,77.043c0,0-148.131,21.982-146.487,183.507c1.644,161.525,219.019,251.284,344.318,150.18
					c96.806-78.113,50.581-192.254-16.798-205.141C322.607,196.26,305.985,57.088,190.349,77.043z"/>
			</defs>
			<clipPath id="SVGID_00000041998194712340628550000004186263626155162277_">
				<use xlink:href="#SVGID_1_"  style="overflow:visible;"/>
			</clipPath>
			<g style="clip-path:url(#SVGID_00000041998194712340628550000004186263626155162277_);">
				<path style="fill:#F5BD79;" d="M233.171,239.953l-5.942-26.589l-3.129,19.637c0,0-9.465,69.314-14.605,74.357
					c-5.14,5.043-44.311,10.882-44.311,10.882l1.564,1.218c38.884,30.281,92.469,33.99,135.262,9.362h0
					c0,0-41.466-11.921-44.853-15.316c-3.387-3.395,2.28-49.771,2.28-49.771l-11.621-52.428l-0.749-17.742L233.171,239.953z"/>
				<path style="fill:#276347;" d="M232.477,329.754c-15.275-1.939-17.137-43.096-17.137-43.096s-51.565,11.217-60.98,22.76
					c-9.415,11.543-24.293,165.363-24.293,165.363s161.792,21.801,223.887-21.216c0,0,32.557-11.708-0.566-70.457
					c0,0-33.133-72-42.433-76.749c-31.154-15.908-55.986-9.266-55.986-9.266S247.465,331.657,232.477,329.754z"/>
				<path style="opacity:0.47;fill:#276347;" d="M280.433,316.867c0,0-19.52-4.54-29.084-8.439l4.509-13.157l22.307-0.094
					L280.433,316.867z"/>
				<path style="fill:#276347;" d="M311.739,358.388l-10.004-41.611l43.218,57.673c3.879,5.176,7.242,10.711,10.004,16.55
					c4.362,9.224,9.599,22.534,8.164,30.827C361.398,431.783,311.739,358.388,311.739,358.388z"/>
				<g>
					<path style="opacity:0.93;fill:#F5BD79;" d="M256.37,278.5l-0.34,31.998c0,0-33.804-12.913-31.256-62.654L256.37,278.5z"/>
					<g>
						<path style="fill:#F5BD79;" d="M319.421,219.837c0,0-12.902,87.122-68.474,76.894c0,0-48.97-12.683-12.36-97.125l27.248-4.248
							l25.473,1.97l20.96,5.01L319.421,219.837z"/>
						<g>
							<g>
								<path style="fill:#440635;" d="M272.133,250.496c0,0-15.224,0.446-15.267-10.96l-7.906,1.542
									C248.961,241.079,258.214,253.656,272.133,250.496z"/>
								<polygon style="fill:#440635;" points="281.484,245.712 280.581,244.924 265.506,231.767 253.618,230.847 263.607,234.162 
									279.652,247.265 								"/>
								<polygon style="fill:#440635;" points="288.791,250.513 289.774,248.895 304.199,255.806 307.518,262.129 306.468,264.59 
									302.691,258.366 								"/>
								<polygon style="opacity:0.93;fill:#F5BD79;" points="284.993,255.303 273.981,275.634 268.305,271.806 273.265,273.884 
																	"/>
								<g>
									<path style="fill:#C3395B;" d="M263.301,285.388c-6.933-0.918-13.609-7.731-12.316-15.009
										c0.654,1.64,1.4,3.091,2.246,4.463C255.75,279.126,259.568,282.189,263.301,285.388L263.301,285.388z"/>
								</g>
								<path style="fill:#440635;" d="M288.122,258.935c0,0,2.657,7.529,13.831,7.697l-1.645,6.747
									C300.308,273.379,288.302,267.422,288.122,258.935z"/>
							</g>
							<g>
								<path style="opacity:0.15;fill:#C3395B;" d="M241.463,240.863c1.289-0.392,2.693,0.005,3.695,0.898
									c2.438,2.173,7.435,7.37,6.978,13.12C251.581,261.868,234.197,243.071,241.463,240.863z"/>
								<path style="opacity:0.15;fill:#C3395B;" d="M294.546,280.571c-5.668-1.237-11.935-4.406-9.353-7.618
									c0.841-1.046,2.225-1.506,3.561-1.331c2.36,0.308,6.742,1.174,10.076,3.539"/>
							</g>
						</g>
					</g>
				</g>
				<g>
					<path style="opacity:0.93;fill:#F5BD79;" d="M290.626,247.132l-5.612,0.344l7.283,5.617l2.495,7.068
						c0,0-21.533,18.576-21.129,32.949c0.404,14.372,18.945,8.673,18.945,8.673l13.893-14.271l16.658-12.874l2.293-8.52
						l-7.273-19.992l-11.256-5.563l-10.098,2.375L290.626,247.132z"/>
					<path style="fill:#F5BD79;" d="M289.819,243.493c0,0-5.765,1.146-3.729,3.748c2.618,3.346,8.137,3.563,8.137,3.563l3.508,9.33
						c0,0-2.91,4.849-9.468,10.327c-6.558,5.478-14.997,18.112-15.136,28.071c-0.139,9.959,5.193,18.974,5.193,18.974
						s19.82,72.021,25.913,88.977c6.093,16.956,18.271,54.411,41.873,49.717c23.603-4.694,20.03-28.732,10.372-48.178
						c-9.659-19.445-50.878-83.116-54.783-91.135c-3.905-8.019-1.311-14.677,2.313-19.028c3.624-4.351,24.407-21.599,25.599-25.53
						c1.192-3.931,4.581-13.21,4.581-13.21s-5.356-12.737-6.993-14.938c-1.637-2.201-4.806-6.001-9.061-5.267
						c0,0-6.605-1.965-11.258,0.08c0,0-8.195,3.277-3.916,6.264c4.279,2.987,8.348,4.769,8.348,4.769s-0.958,8.859-1.355,10.169
						c-0.397,1.311-3.226,3.041-3.226,3.041l-1.895-10.85C304.837,252.389,298.078,242.378,289.819,243.493z"/>
				</g>
				<g>
					<g>
						<path style="fill:#86386B;" d="M302.868,210.709c0,0-5.833,22.931-54.615,15.626
							C248.253,226.335,282.579,227.403,302.868,210.709z"/>
						<path style="fill:#86386B;" d="M307.006,206c0,0,2.939,17.731-33.308,27.301C273.698,233.301,297.96,223.729,307.006,206z"/>
					</g>
					<g>
						<g>
							<path style="fill:#86386B;" d="M282.097,162.723c0,0,8.332-18.844-6.931-31.039c-15.263-12.195-28.334-8.969-39.774-4.77
								c-11.44,4.199-28.417,35.084-4.128,41.199C255.554,174.228,282.097,162.723,282.097,162.723z"/>
							<path style="opacity:0.35;fill:#86386B;" d="M238.881,147.519c11.44-4.199,27.773-5.478,43.036,6.717
								c1.53,1.223,2.725,2.507,3.66,3.826c-1.81,2.854-3.48,4.661-3.48,4.661s-26.543,11.504-50.833,5.39
								c-0.038-0.01-0.076-0.019-0.114-0.029c-4.847-1.244-6.801-7.112-3.679-10.999
								C231.237,152.397,235.522,148.752,238.881,147.519z"/>
						</g>
						<g>
							<path style="fill:#86386B;" d="M309.597,198.318c0,0-6.453,27.462-29.312,24.847c-22.859-2.615-24.48-9.095-41.606-3.217
								c-9.728,3.339-20.276,46.302-20.276,46.302s-5.138-20.402-10.848-30.916c-10.806-19.9-4.296-66.601,35.751-79.001
								c35.034-10.848,57.347,4.011,71.36,21.193c14.012,17.182,26.269,99.471-26.236,125.914c0,0,15.505-12.358,23.657-39.689
								c0,0-8.198,17.159-17.358,24.924c0,0,13.514-30.305,14.806-57.319c0,0-9.202,29.792-20.127,38.267
								c0,0,22.427-45.715,14.111-70.082"/>
							<path style="opacity:0.35;fill:#86386B;" d="M282.194,215.264c1.653,0.406-16.51,4.19-29.516,0.875
								c-13.006-3.315-31.681,27.438-31.681,27.438s14.873-58.161,49.753-56.312l-22.432,13.517c0,0,23.795-9.175,42.275-5.204
								l-43.927,15.244C246.666,210.822,267.111,211.555,282.194,215.264z"/>
							<path style="opacity:0.35;fill:#86386B;" d="M313.508,225.523c1.113,7.364,0.989,20.307-5.476,40.882
								c0,0,9.382-21.304,9.356-42.489c0,0,3.267,34.145-7.612,52.792c0,0,22.854-29.583,7.967-68.016l0,0
								C314.092,213.505,312.608,219.57,313.508,225.523z"/>
						</g>
						<g style="opacity:0.11;">
							<path style="fill:#86386B;" d="M243.307,156.335c15.297-4.736,28.167-4.571,38.982-1.452
								c-29.508,0.49-42.097,5.66-51.559,19.968c-27.187,41.11-1.794,86.165-11.919,85.503c-2.088-5.464-9.217-20.71-11.254-25.018
								C196.95,212.909,203.26,168.734,243.307,156.335z"/>
							<path style="fill:#86386B;" d="M304.396,245.354c-3.716,8.95-9.1,19.704-14.987,24.271c0,0,5.105-10.409,9.54-23.938
								C300.643,245.61,302.454,245.505,304.396,245.354z"/>
						</g>
					</g>
				</g>
				<path style="fill:#276347;" d="M293.894,362.937c0,0-4.511-6.27-4.155-4.365c10.386,55.468,13.996,88.96,13.996,88.96
					s20.377,5.686,29.442,4.449C342.243,450.744,293.894,362.937,293.894,362.937z"/>
				<g>
					<path style="fill:#F5BD79;" d="M150.131,350.858l0.434-22.604c0,0-16.149,3.966-22,33.65
						c-5.851,29.684-16.076,90.555-12.267,102.716c3.809,12.161,31.418,18.254,63.404,18.175
						c33.981-0.084,92.336-10.491,102.385-9.749s31.253,6.759,41.863,7.319c24.296,1.282,37.239-18.469,20.466-26.748
						c-16.773-8.278-34.177-10.834-44.828-10.789c-10.651,0.045-127.101-2.025-146.09-5.773L150.131,350.858z"/>
					<path style="fill:#276347;" d="M278.778,441.184c-33.138-3.217-93.988-10.279-108.404-13.125l-0.688-84.802l-14.122-35.412
						c0,0-20.664,9.866-30.376,52.759c-6.683,29.512-28.014,90.481-5.56,114.188c8.79,9.28,41.222,9.679,73.199,10.439
						c26.374,0.627,61.146-4.824,82.794-12.711C275.73,460.811,275.826,447.643,278.778,441.184z"/>
					<path style="fill:#276347;" d="M262.132,440.094c0,0-90.434-14.892-108.475-11.972l10.276-73.41l2.11,65.131L262.132,440.094z"
						/>
				</g>
				<path style="fill:#276347;" d="M311.356,333.085c-4.971,4.077-13.287,9.891-24.65,14.463
					c6.172,21.879,13.252,49.218,15.439,59.222c6.026,27.561,13.613,64.268,46.195,53.855c22.923-7.326,19.866-37.046,10.207-56.491
					C351.444,389.831,327.778,356.198,311.356,333.085z"/>
				<path style="fill:#F5BD79;" d="M247.561,221.059c0,0,2.903-15.027-9.968-14.328c-8.673,0.471-17.157,22.398,1.449,26.792"/>
			</g>
		</g>
	</g>
</g>
<g id="TEXT">
</g>
</svg>
